<?xml version="1.0"?>
<svg width="64" height="64" xmlns="http://www.w3.org/2000/svg" xmlns:svg="http://www.w3.org/2000/svg">
 <defs>
  <clipPath id="clip-LargeRoad8lanes">
   <rect height="64" id="svg_1" width="64"/>
  </clipPath>undefined</defs>
 <g class="layer">
  <title>Layer 1</title>
  <polyline fill="none" id="svg_17" opacity="0.5" points="9.03616 5.97235 8.86219 6.96549 8.69062 7.86132 8.61571 8.6791 8.46874 9.5976" stroke-linecap="round"/>
  <text fill="#ffd4aa" font-family="Sans-serif" font-size="24" font-weight="bold" id="svg_18" stroke-width="0" text-anchor="middle" transform="matrix(0.539213 0 0 0.609831 0.963212 -1.20126)" x="20.8" xml:space="preserve" y="24.44">2</text>
  <text fill="#ffd4aa" font-family="Sans-serif" font-size="11" font-weight="normal" id="svg_19" stroke-width="0" style="cursor: move;" text-anchor="middle" transform="matrix(0.774676 0 0 0.766501 3.36502 -0.988836)" x="28.24" xml:space="preserve" y="13.51">lane</text>
  <g clip-path="url(#clip-MediumRoadOneway)" id="svg_2" transform="matrix(1 0 0 1 0 0)">
   <path d="m116.28,183.49l-6.59,-8.59s-4.62,2.21 -4.37,2.65s8.13,10.08 8.13,10.08l2.83,-4.14z" data-name="Path 2053" fill="#706428" id="svg_3" transform="rotate(-7 -1075.72 606.991)"/>
   <path d="m111.28,187.49l-6.59,-8.59s-4.62,2.21 -4.37,2.65s8.13,10.08 8.13,10.08l2.83,-4.14z" data-name="Path 2201" fill="#b47300" id="svg_4" transform="rotate(-7 -1080.72 610.991)"/>
   <path d="m105.28,190.49l-6.59,-8.59s-4.62,2.21 -4.37,2.65s8.13,10.08 8.13,10.08l2.83,-4.14z" data-name="Path 2205" fill="#61a2d3" id="svg_5" transform="rotate(-7 -1086.72 613.991)"/>
   <path d="m116.51,184.66l-6.83,-8.6s-2.31,0.51 -2.06,0.95s7.53,8.87 7.53,8.87l1.36,-1.22z" data-name="Path 2054" fill="#9a8a39" id="svg_6" transform="rotate(-7 -1076.56 608.072)"/>
   <path d="m111.51,187.66l-6.83,-8.6s-2.31,0.51 -2.06,0.95s7.53,8.87 7.53,8.87l1.36,-1.22z" data-name="Path 2202" fill="#e39c03" id="svg_7" transform="rotate(-7 -1081.56 611.072)"/>
   <path d="m105.51,190.66l-6.83,-8.6s-2.31,0.51 -2.06,0.95s7.53,8.87 7.53,8.87l1.36,-1.22z" data-name="Path 2206" fill="#7ac6ff" id="svg_8" transform="rotate(-7 -1087.56 614.072)"/>
   <path d="m1184.35,-428.12a4.27,4.27 0 0 1 2.52,-2.36c1.76,-0.49 2.24,0 2.24,0l-2.01,-1.97l-5.5,1.62l2.75,2.71z" data-name="Path 2055" fill="rgba(59,59,59,0.61)" id="svg_9" transform="translate(-1134.99 470.025)"/>
   <path d="m1184.35,-428.12a4.27,4.27 0 0 1 2.52,-2.36c1.76,-0.49 2.24,0 2.24,0l-2.01,-1.97l-5.5,1.62l2.75,2.71z" data-name="Path 2203" fill="rgba(59,59,59,0.61)" id="svg_10" transform="translate(-1139.99 474.025)"/>
   <path d="m1184.35,-428.12a4.27,4.27 0 0 1 2.52,-2.36c1.76,-0.49 2.24,0 2.24,0l-2.01,-1.97l-5.5,1.62l2.75,2.71z" data-name="Path 2207" fill="rgba(59,59,59,0.61)" id="svg_11" transform="translate(-1145.99 477.025)"/>
   <g data-name="Path 2200" fill="#4d4324" id="svg_12" transform="rotate(13 52.6008 40.7304)">
    <path d="m55.16,45.18c-0.98,0 -1.78,-0.97 -1.78,-2.15c0,-1.19 0.8,-2.15 1.78,-2.15c0.98,0 1.78,0.96 1.78,2.15c0,1.18 -0.8,2.15 -1.78,2.15z" id="svg_13"/>
    <path d="m55.16,41.38c-0.69,0 -1.28,0.75 -1.28,1.65c0,0.89 0.59,1.65 1.28,1.65c0.7,0 1.28,-0.76 1.28,-1.65c0,-0.9 -0.58,-1.65 -1.28,-1.65m0,-1c1.26,0 2.28,1.18 2.28,2.65c0,1.46 -1.02,2.65 -2.28,2.65c-1.26,0 -2.28,-1.19 -2.28,-2.65c0,-1.47 1.02,-2.65 2.28,-2.65z" fill="#755902" id="svg_14"/>
   </g>
   <g data-name="Path 2204" fill="#748991" id="svg_15" transform="rotate(13 47.6008 44.7304)">
    <path d="m50.16,49.18c-0.98,0 -1.78,-0.97 -1.78,-2.15c0,-1.19 0.8,-2.15 1.78,-2.15c0.98,0 1.78,0.96 1.78,2.15c0,1.18 -0.8,2.15 -1.78,2.15z" id="svg_16"/>
    <path d="m50.16,45.38c-0.69,0 -1.28,0.75 -1.28,1.65c0,0.89 0.59,1.65 1.28,1.65c0.7,0 1.28,-0.76 1.28,-1.65c0,-0.9 -0.58,-1.65 -1.28,-1.65m0,-1c1.26,0 2.28,1.18 2.28,2.65c0,1.46 -1.02,2.65 -2.28,2.65c-1.26,0 -2.28,-1.19 -2.28,-2.65c0,-1.47 1.02,-2.65 2.28,-2.65z" fill="#8d5b03" id="svg_20"/>
   </g>
   <g data-name="Path 2208" fill="#4a6068" id="svg_21" transform="rotate(13 41.6008 47.7304)">
    <path d="m44.16,52.18c-0.98,0 -1.78,-0.97 -1.78,-2.15c0,-1.19 0.8,-2.15 1.78,-2.15c0.98,0 1.78,0.96 1.78,2.15c0,1.18 -0.8,2.15 -1.78,2.15z" id="svg_22"/>
    <path d="m44.16,48.38c-0.69,0 -1.28,0.75 -1.28,1.65c0,0.89 0.59,1.65 1.28,1.65c0.7,0 1.28,-0.76 1.28,-1.65c0,-0.9 -0.58,-1.65 -1.28,-1.65m0,-1c1.26,0 2.28,1.18 2.28,2.65c0,1.46 -1.02,2.65 -2.28,2.65c-1.26,0 -2.28,-1.19 -2.28,-2.65c0,-1.47 1.02,-2.65 2.28,-2.65z" fill="#4e7989" id="svg_23"/>
   </g>
   <path d="m1248.01,-1113.32l11.31,-6.69l-11.31,6.69z" data-name="Path 2191" fill="gray" id="svg_24" transform="translate(-1201.93 1152.9)"/>
   <path d="m6.54,23.62l29.92,25.59l19.32,-11.28l0.35,-2.6l-49.59,-13.33l0,1.62z" data-name="Path 2186" fill="#434343" id="svg_25"/>
   <path d="m8.51,20.78l29.99,24.66l10.82,-6.21l-30.23,-24.5l-10.59,6.06l0.01,-0.01z" data-name="Path 2190" fill="#bababa" id="svg_26"/>
   <path d="m7.04,21.84l31.11,24.09l8.39,-4.9l-29.84,-24.94l-9.66,5.75z" data-name="Path 2193" fill="#929191" id="svg_27"/>
   <path d="m17.65,15.35l29.87,25.1l8.72,-5.22l-30.02,-25.11l-8.57,5.23z" data-name="Path 2211" fill="#929191" id="svg_28"/>
   <path d="m6.5,21.88l29.88,25.1l3.7,-2.1l-30.02,-25.11l-3.56,2.11z" data-name="Path 2215" fill="#716e6e" id="svg_29"/>
   <path d="m23.13,12.27l29.87,25.1l3.24,-2.14l-30.02,-25.11l-3.09,2.15z" data-name="Path 2216" fill="#716e6e" id="svg_30"/>
   <path d="m24.14,25.95l0.74,5.23l1.5,-0.84l5.27,4.86l2.4,-1.41l-5.16,-4.7l1.72,-1l-6.47,-2.14z" data-name="Path 2285" fill="#fff" id="svg_31"/>
   <path d="m31.15,21.95l0.74,5.23l1.5,-0.84l5.27,4.86l2.4,-1.41l-5.16,-4.7l1.72,-1l-6.47,-2.14z" data-name="Path 2286" fill="#fff" id="svg_32"/>
  </g>
  <text fill="#007fff" font-family="Sans-serif" font-size="24" font-weight="bold" id="svg_35" stroke-width="0" text-anchor="middle" transform="matrix(0.539213 0 0 0.609831 0.963212 -1.20126)" x="15.42" xml:space="preserve" y="100.33">1U</text>
 </g>
</svg>