<?xml version="1.0"?>
<svg width="64" height="64" xmlns="http://www.w3.org/2000/svg" xmlns:svg="http://www.w3.org/2000/svg">
 <defs>
  <clipPath id="clip-LargeRoad8lanes">
   <rect height="64" id="svg_1" width="64"/>
  </clipPath>undefined</defs>
 <g class="layer">
  <title>Layer 1</title>
  <polyline fill="none" id="svg_17" opacity="0.5" points="9.03616 5.97235 8.86219 6.96549 8.69062 7.86132 8.61571 8.6791 8.46874 9.5976" stroke-linecap="round"/>
  <g id="svg_2">
   <path d="m1249.1,-1108.96l11.31,-6.69l-11.31,6.69z" data-name="Path 2191" fill="gray" id="svg_3" transform="translate(-1201.93 1152.9)"/>
   <path d="m117.71,185.72l-6.59,-8.59s-4.62,2.21 -4.37,2.65s8.13,10.08 8.13,10.08l2.83,-4.14z" data-name="Path 2053" fill="#706428" id="svg_4" transform="rotate(-7 -1074.29 609.213)"/>
   <path d="m112.71,189.72l-6.59,-8.59s-4.62,2.21 -4.37,2.65s8.13,10.08 8.13,10.08l2.83,-4.14z" data-name="Path 2201" fill="#b47300" id="svg_5" transform="rotate(-7 -1079.29 613.213)"/>
   <path d="m106.71,192.72l-6.59,-8.59s-4.62,2.21 -4.37,2.65s8.13,10.08 8.13,10.08l2.83,-4.14z" data-name="Path 2205" fill="#61a2d3" id="svg_6" transform="rotate(-7 -1085.29 616.213)"/>
   <path d="m117.94,186.89l-6.83,-8.6s-2.31,0.51 -2.06,0.95s7.53,8.87 7.53,8.87l1.36,-1.22z" data-name="Path 2054" fill="#9a8a39" id="svg_7" transform="rotate(-7 -1075.13 610.294)"/>
   <path d="m112.94,189.89l-6.83,-8.6s-2.31,0.51 -2.06,0.95s7.53,8.87 7.53,8.87l1.36,-1.22z" data-name="Path 2202" fill="#e39c03" id="svg_8" transform="rotate(-7 -1080.13 613.294)"/>
   <path d="m106.94,192.89l-6.83,-8.6s-2.31,0.51 -2.06,0.95s7.53,8.87 7.53,8.87l1.36,-1.22z" data-name="Path 2206" fill="#7ac6ff" id="svg_9" transform="rotate(-7 -1086.13 616.294)"/>
   <g data-name="Path 2200" fill="#4d4324" id="svg_10" transform="rotate(13 54.0369 42.9522)">
    <path d="m56.6,47.4c-0.98,0 -1.78,-0.97 -1.78,-2.15c0,-1.19 0.8,-2.15 1.78,-2.15c0.98,0 1.78,0.96 1.78,2.15c0,1.18 -0.8,2.15 -1.78,2.15z" id="svg_11"/>
    <path d="m56.6,43.6c-0.69,0 -1.28,0.75 -1.28,1.65c0,0.89 0.59,1.65 1.28,1.65c0.7,0 1.28,-0.76 1.28,-1.65c0,-0.9 -0.58,-1.65 -1.28,-1.65m0,-1c1.26,0 2.28,1.18 2.28,2.65c0,1.46 -1.02,2.65 -2.28,2.65c-1.26,0 -2.28,-1.19 -2.28,-2.65c0,-1.47 1.02,-2.65 2.28,-2.65z" fill="#755902" id="svg_12"/>
   </g>
   <g data-name="Path 2204" fill="#748991" id="svg_13" transform="rotate(13 49.0369 46.9522)">
    <path d="m51.6,51.4c-0.98,0 -1.78,-0.97 -1.78,-2.15c0,-1.19 0.8,-2.15 1.78,-2.15c0.98,0 1.78,0.96 1.78,2.15c0,1.18 -0.8,2.15 -1.78,2.15z" id="svg_14"/>
    <path d="m51.6,47.6c-0.69,0 -1.28,0.75 -1.28,1.65c0,0.89 0.59,1.65 1.28,1.65c0.7,0 1.28,-0.76 1.28,-1.65c0,-0.9 -0.58,-1.65 -1.28,-1.65m0,-1c1.26,0 2.28,1.18 2.28,2.65c0,1.46 -1.02,2.65 -2.28,2.65c-1.26,0 -2.28,-1.19 -2.28,-2.65c0,-1.47 1.02,-2.65 2.28,-2.65z" fill="#8d5b03" id="svg_15"/>
   </g>
   <g data-name="Path 2208" fill="#4a6068" id="svg_16" transform="rotate(13 43.0369 49.9522)">
    <path d="m45.6,54.4c-0.98,0 -1.78,-0.97 -1.78,-2.15c0,-1.19 0.8,-2.15 1.78,-2.15c0.98,0 1.78,0.96 1.78,2.15c0,1.18 -0.8,2.15 -1.78,2.15z" id="svg_20"/>
    <path d="m45.6,50.6c-0.69,0 -1.28,0.75 -1.28,1.65c0,0.89 0.59,1.65 1.28,1.65c0.7,0 1.28,-0.76 1.28,-1.65c0,-0.9 -0.58,-1.65 -1.28,-1.65m0,-1c1.26,0 2.28,1.18 2.28,2.65c0,1.46 -1.02,2.65 -2.28,2.65c-1.26,0 -2.28,-1.19 -2.28,-2.65c0,-1.47 1.02,-2.65 2.28,-2.65z" fill="#4e7989" id="svg_21"/>
   </g>
   <path d="m1.81,28.7l29.71,25.31l30.45,-18.38l0.11,-2.84l-60.27,-6.69l0,2.59l0,0.01z" data-name="Path 2186" fill="#434343" id="svg_22"/>
   <path d="m8.21,22.43l24.05,28.18l25.13,-14.78l-30.23,-24.5l-18.95,11.1z" data-name="Path 2190" fill="#bababa" id="svg_23" transform="matrix(1 0 0 1 0 0)"/>
   <path d="m3.53,24.87l29.32,25.45l5.89,-3.39l-29.77,-25.22l-5.44,3.16z" data-name="Path 2192" fill="#929191" id="svg_24" transform="matrix(1 0 0 1 0 0)"/>
   <path d="m17.57,16.8l30.27,24.47l5.36,-3.16l-30.13,-24.36l-5.5,3.06l0,-0.01z" data-name="Path 2193" fill="#929191" id="svg_25"/>
   <path d="m25.25,12.47l29.87,25.1l6.09,-4.18l-29.95,-25.04l-6.01,4.12z" data-name="Path 2211" fill="#929191" id="svg_26"/>
   <path d="m1.9,25.85l29.88,25.1l3.7,-2.1l-30.02,-25.11l-3.56,2.11z" data-name="Path 2215" fill="#716e6e" id="svg_27" transform="matrix(1 0 0 1 0 0)"/>
   <path d="m28.94,10.05l29.87,25.1l3.24,-2.14l-30.02,-25.11l-3.09,2.15z" data-name="Path 2216" fill="#716e6e" id="svg_28" transform="matrix(1 0 0 1 0 0)"/>
   <path d="m10.85,20.82l30.27,24.4l4.95,-2.81l-29.92,-24.57l-5.29,2.99l-0.01,-0.01z" data-name="Path 2193" fill="#929191" id="svg_29"/>
  </g>
  <text fill="#ffd4aa" font-family="Sans-serif" font-size="24" font-weight="bold" id="svg_18" stroke-width="0" text-anchor="middle" transform="matrix(1 0 0 1 0 0) matrix(0.539213 0 0 0.609831 0.963212 -1.20126)" x="15.16" xml:space="preserve" y="24.55">4</text>
  <text fill="#ffd4aa" font-family="Sans-serif" font-size="11" font-weight="normal" id="svg_19" stroke-width="0" text-anchor="middle" transform="matrix(0.774676 0 0 0.766501 3.36502 -0.988836)" x="27.21" xml:space="preserve" y="13.38">lane</text>
  <text fill="#007fff" font-family="Sans-serif" font-size="24" font-weight="bold" id="svg_35" stroke-width="0" text-anchor="middle" transform="matrix(0.539213 0 0 0.609831 0.963212 -1.20126)" x="15.42" xml:space="preserve" y="100.33">2U</text>
 </g>
</svg>